PathFileType	4	(x/y/z)	S02_P20_T16
DataRate	CameraRate	NumFrames	NumMarkers	Units	OrigDataRate	OrigDataStartFrame	OrigNumFrames
240	240	10	51	mm	240	172	342
Frame#	Time	Sternum			R.Acromium			L.Acromium			Top.Head			R.ASIS			L.ASIS			R.PSIS			L.PSIS			R.Great.Tro			L.Great.Tro			R.Iliac.Crest			L.Iliac.Crest			V.Sacral			R.Thigh.Upper.Post			R.Thigh.Lower.Ant			R.Thigh.Lower.Post			R.Thigh.Upper.Ant			R.Knee.Lat			R.Knee.Med			R.Shank.Upper.Post			R.Shank.Lower.Ant			R.Shank.Lower.Post			R.Shank.Upper.Ant			R.Ankle.Lat			R.Ankle.Med			R.Heel.Upper			R.Heel.Med			R.Heel.Lat			R.Toe.Lat			R.Toe.Med			R.Toe.Tip			L.Thigh.Upper.Post			L.Thigh.Lower.Ant			L.Thigh.Lower.Post			L.Thigh.Upper.Ant			L.Knee.Lat			L.Knee.Med			L.Shank.Upper.Post			L.Shank.Lower.Ant			L.Shank.Lower.Post			L.Shank.Upper.Ant			L.Ankle.Lat			L.Ankle.Med			L.Heel.Upper			L.Heel.Med			L.Heel.Lat			L.Toe.Lat			L.Toe.Med			L.Toe.Tip			Cervical.Spine			Back			
		X1	Y1	Z1	X2	Y2	Z2	X3	Y3	Z3	X4	Y4	Z4	X5	Y5	Z5	X6	Y6	Z6	X7	Y7	Z7	X8	Y8	Z8	X9	Y9	Z9	X10	Y10	Z10	X11	Y11	Z11	X12	Y12	Z12	X13	Y13	Z13	X14	Y14	Z14	X15	Y15	Z15	X16	Y16	Z16	X17	Y17	Z17	X18	Y18	Z18	X19	Y19	Z19	X20	Y20	Z20	X21	Y21	Z21	X22	Y22	Z22	X23	Y23	Z23	X24	Y24	Z24	X25	Y25	Z25	X26	Y26	Z26	X27	Y27	Z27	X28	Y28	Z28	X29	Y29	Z29	X30	Y30	Z30	X31	Y31	Z31	X32	Y32	Z32	X33	Y33	Z33	X34	Y34	Z34	X35	Y35	Z35	X36	Y36	Z36	X37	Y37	Z37	X38	Y38	Z38	X39	Y39	Z39	X40	Y40	Z40	X41	Y41	Z41	X42	Y42	Z42	X43	Y43	Z43	X44	Y44	Z44	X45	Y45	Z45	X46	Y46	Z46	X47	Y47	Z47	X48	Y48	Z48	X49	Y49	Z49	X50	Y50	Z50	X51	Y51	Z51	

172	0.7125	-276.26	1109.7	320.59	-372.57	1342.2	476.26	-389.69	1354.7	183.97	-312.87	1632.2	338.81	-312.63	935.36	430.99	-309.48	928.37	219.8	-522.28	985.18	380.39	-529.27	987.88	306.71	-389.12	824.19	519.68	-439.78	839.92	139.88	-407.5	986.83	491.3	-433.97	981.18	158.75	-555.5	941.71	340	-384.21	615.06	494.26	-333.4	537.69	450.84	-402.59	528.81	473.11	-319.08	623.99	471.34	-389.94	451.4	451.96	-407.12	445.25	309.44	-502.16	260.85	434.02	-442.44	169.8	412.24	-507.64	187.98	422.28	-432.87	237.04	430.64	-509.66	93.559	405.87	-500.63	105.45	322.27	-570.85	79.866	350.46	-557.24	47.57	322.38	-568.97	48.279	385.84	-408.59	39.74	431.18	-373.11	32.323	324.6	-325.71	58.205	381.27	-374.86	607.39	154.63	-276.49	559.55	138.71	-339.49	524.71	171.65	-319.14	644.44	126.58	-272.69	476.37	147.38	-238.08	477.95	285.01	-423.54	374.94	180.73	-411.58	264.31	184.2	-462.05	314.88	200.49	-377.56	330.88	166.14	-500.25	204.44	212.16	-476.1	192.41	289.96	-559.23	208.99	259.5	-559.7	184.3	294.33	-577.13	183.31	234.63	-458.7	79.442	179.44	-413.37	78.261	278.9	-365.42	56.981	222.32	-456.02	1411.2	338.87	-533.04	1159.3	341.3
173	0.71667	-271.02	1110.3	320.59	-366.88	1342.8	476.25	-384.45	1355.2	184.07	-307.18	1632.5	338.75	-307.76	935.84	431.41	-304.17	929.33	220.3	-517.11	985.64	380.15	-524.02	988.56	306.48	-384.68	824.22	519.58	-433.99	840.9	139.76	-402.68	987.15	491.34	-428.44	982.12	158.82	-550.32	942.33	339.59	-381.84	615.16	494.16	-331.71	537.28	450.88	-401.02	529.08	473.02	-316.55	623.43	471.36	-389.07	451.52	451.91	-406.37	445.44	309.29	-501.82	261.26	433.9	-442.28	170.11	412.22	-507.4	188.39	422.18	-432.6	237.34	430.58	-509.48	93.83	405.86	-500.48	105.75	322.3	-570.69	80.257	350.45	-557.15	47.933	322.35	-568.89	48.663	385.81	-408.55	39.739	431.17	-373.13	32.313	324.62	-325.65	58.134	381.29	-367.41	608.33	154.52	-268.59	561.2	139.17	-331.5	525.9	171.8	-311.83	645.75	126.68	-264.12	477.89	148.1	-229.96	480.09	285.56	-413.01	372.69	180.94	-398.25	262.44	184.52	-449.87	311.75	200.59	-365.93	329.8	166.54	-485.53	200.38	212.25	-461.15	188.89	290.1	-544.79	203.1	259.53	-544.55	178.26	294.25	-561.85	176.92	234.64	-440.28	76.711	179.38	-395.04	76.716	278.91	-346.44	56.975	222.37	-450.47	1411.6	339.02	-527.71	1159.8	341.77
174	0.72083	-265.78	1110.8	320.61	-361.21	1343.4	476.24	-379.19	1355.6	184.15	-301.48	1632.8	338.68	-302.89	936.28	431.83	-298.87	930.22	220.78	-511.95	986.01	379.87	-518.77	989.15	306.21	-380.24	824.21	519.49	-428.16	841.8	139.58	-397.89	987.41	491.34	-422.92	982.95	158.85	-545.15	942.84	339.15	-379.48	615.26	494.06	-330.02	536.87	450.93	-399.46	529.34	472.95	-314.03	622.87	471.4	-388.18	451.65	451.87	-405.59	445.61	309.16	-501.46	261.65	433.8	-442.12	170.42	412.18	-507.15	188.79	422.09	-432.32	237.63	430.53	-509.31	94.101	405.85	-500.33	106.05	322.35	-570.53	80.651	350.44	-557.06	48.306	322.33	-568.8	49.049	385.79	-408.52	39.736	431.16	-373.15	32.307	324.63	-325.59	58.063	381.31	-360.06	609.22	154.44	-260.81	562.75	139.68	-323.65	527.02	171.99	-304.61	646.96	126.81	-255.69	479.33	148.84	-222.06	482.11	286.14	-402.46	370.33	181.16	-384.85	260.53	184.81	-437.63	308.52	200.68	-354.28	328.67	166.92	-470.64	196.26	212.29	-446.05	185.31	290.2	-530.12	197.12	259.51	-529.17	172.16	294.12	-546.34	170.45	234.6	-421.7	74.027	179.29	-376.59	75.237	278.89	-327.37	57.058	222.39	-444.92	1411.9	339.14	-522.37	1160.3	342.22
175	0.725	-260.52	1111.3	320.64	-355.56	1343.9	476.23	-373.91	1356	184.23	-295.78	1633	338.59	-298.02	936.69	432.22	-293.58	931.03	221.25	-506.81	986.3	379.56	-513.52	989.63	305.9	-375.79	824.15	519.4	-422.28	842.63	139.35	-393.12	987.64	491.31	-417.4	983.68	158.83	-539.98	943.25	338.66	-377.12	615.34	493.97	-328.33	536.45	451.01	-397.88	529.6	472.89	-311.52	622.3	471.45	-387.28	451.77	451.84	-404.77	445.75	309.05	-501.09	262.04	433.7	-441.95	170.71	412.15	-506.89	189.19	422.01	-432.04	237.91	430.49	-509.13	94.372	405.84	-500.15	106.35	322.4	-570.38	81.046	350.42	-556.96	48.69	322.32	-568.71	49.436	385.77	-408.48	39.731	431.16	-373.16	32.307	324.65	-325.53	57.992	381.34	-352.82	610.03	154.4	-253.17	564.17	140.21	-315.94	528.05	172.22	-297.47	648.08	126.96	-247.4	480.68	149.62	-214.38	483.99	286.76	-391.89	367.85	181.38	-371.39	258.59	185.08	-425.33	305.19	200.76	-342.63	327.49	167.29	-455.6	192.1	212.29	-430.79	181.69	290.26	-515.24	191.08	259.43	-513.55	166.04	293.96	-530.58	163.95	234.52	-402.98	71.406	179.17	-358.02	73.84	278.85	-308.23	57.242	222.38	-439.36	1412.2	339.25	-517.03	1160.6	342.64
176	0.72917	-255.25	1111.7	320.69	-349.92	1344.3	476.22	-368.63	1356.2	184.3	-290.08	1633.1	338.48	-293.15	937.05	432.6	-288.28	931.75	221.71	-501.69	986.5	379.2	-508.27	990.03	305.55	-371.33	824.05	519.32	-416.37	843.39	139.07	-388.36	987.8	491.24	-411.88	984.31	158.77	-534.8	943.57	338.14	-374.76	615.41	493.9	-326.64	536.03	451.1	-396.31	529.86	472.84	-309.01	621.71	471.51	-386.38	451.88	451.83	-403.89	445.86	308.97	-500.71	262.42	433.62	-441.79	171.01	412.11	-506.62	189.58	421.94	-431.75	238.18	430.45	-508.95	94.643	405.84	-499.96	106.66	322.45	-570.22	81.44	350.4	-556.85	49.083	322.31	-568.62	49.823	385.76	-408.45	39.723	431.16	-373.17	32.311	324.67	-325.47	57.921	381.37	-345.68	610.77	154.39	-245.67	565.48	140.79	-308.38	529	172.48	-290.43	649.09	127.13	-239.26	481.95	150.43	-206.92	485.73	287.41	-381.29	365.28	181.6	-357.86	256.64	185.33	-412.95	301.78	200.85	-330.97	326.26	167.66	-440.39	187.9	212.24	-415.39	178.05	290.28	-500.13	184.99	259.3	-497.69	159.9	293.75	-514.57	157.42	234.38	-384.11	68.866	179.01	-339.34	72.538	278.77	-289.03	57.539	222.33	-433.81	1412.4	339.34	-511.69	1160.9	343.05
177	0.73333	-249.97	1112.1	320.74	-344.3	1344.7	476.22	-363.33	1356.4	184.36	-284.38	1633.2	338.35	-288.26	937.36	432.95	-282.99	932.38	222.15	-496.58	986.62	378.81	-503.03	990.32	305.16	-366.88	823.91	519.24	-410.42	844.07	138.72	-383.61	987.92	491.14	-406.37	984.84	158.68	-529.63	943.78	337.59	-372.39	615.47	493.84	-324.94	535.59	451.22	-394.72	530.11	472.81	-306.5	621.12	471.6	-385.46	452	451.84	-402.97	445.94	308.93	-500.32	262.79	433.55	-441.61	171.29	412.08	-506.34	189.96	421.88	-431.46	238.45	430.42	-508.78	94.913	405.84	-499.75	106.96	322.51	-570.07	81.834	350.37	-556.75	49.484	322.3	-568.53	50.21	385.74	-408.42	39.713	431.16	-373.17	32.321	324.7	-325.41	57.852	381.4	-338.64	611.43	154.41	-238.31	566.67	141.39	-300.98	529.85	172.77	-283.47	649.99	127.33	-231.27	483.11	151.26	-199.67	487.33	288.09	-370.68	362.61	181.81	-344.28	254.69	185.56	-400.51	298.3	200.92	-319.31	325	168.01	-425.03	183.69	212.15	-399.83	174.4	290.25	-484.79	178.87	259.13	-481.6	153.77	293.51	-498.33	150.89	234.2	-365.12	66.424	178.82	-320.56	71.346	278.67	-269.78	57.96	222.24	-428.25	1412.6	339.42	-506.34	1161.2	343.43
178	0.7375	-244.68	1112.3	320.81	-338.69	1345	476.21	-358.02	1356.6	184.41	-278.69	1633.2	338.21	-283.36	937.61	433.28	-277.7	932.91	222.56	-491.48	986.65	378.39	-497.78	990.52	304.73	-362.43	823.73	519.17	-404.43	844.67	138.33	-378.87	987.97	491.01	-400.87	985.26	158.55	-524.45	943.91	337.01	-370.03	615.52	493.79	-323.25	535.16	451.36	-393.13	530.35	472.79	-303.99	620.52	471.7	-384.52	452.1	451.86	-401.98	446	308.92	-499.92	263.15	433.49	-441.44	171.57	412.06	-506.05	190.35	421.83	-431.15	238.7	430.4	-508.6	95.184	405.84	-499.52	107.25	322.57	-569.92	82.228	350.34	-556.63	49.892	322.3	-568.44	50.596	385.72	-408.39	39.701	431.17	-373.15	32.336	324.73	-325.34	57.784	381.44	-331.72	612	154.45	-231.08	567.72	142.03	-293.73	530.6	173.1	-276.61	650.79	127.56	-223.44	484.18	152.11	-192.64	488.77	288.81	-360.03	359.86	182.02	-330.64	252.75	185.77	-388	294.76	200.98	-307.64	323.7	168.36	-409.5	179.48	212.02	-384.13	170.77	290.17	-469.22	172.74	258.91	-465.27	147.67	293.24	-481.84	144.37	233.97	-346	64.094	178.59	-301.68	70.278	278.53	-250.49	58.517	222.12	-422.68	1412.7	339.48	-500.99	1161.3	343.79
179	0.74167	-239.37	1112.6	320.88	-333.08	1345.2	476.2	-352.69	1356.6	184.45	-272.99	1633.1	338.05	-278.44	937.8	433.57	-272.4	933.35	222.95	-486.38	986.6	377.93	-492.53	990.63	304.27	-357.99	823.51	519.11	-398.4	845.19	137.88	-374.13	987.97	490.86	-395.35	985.58	158.4	-519.27	943.93	336.4	-367.66	615.56	493.75	-321.54	534.72	451.52	-391.52	530.58	472.79	-301.49	619.91	471.82	-383.58	452.21	451.9	-400.93	446.03	308.94	-499.5	263.51	433.44	-441.25	171.83	412.04	-505.75	190.72	421.78	-430.83	238.95	430.4	-508.42	95.454	405.84	-499.27	107.55	322.64	-569.76	82.621	350.31	-556.51	50.304	322.3	-568.35	50.982	385.7	-408.36	39.685	431.18	-373.12	32.355	324.76	-325.27	57.717	381.47	-324.9	612.48	154.53	-223.99	568.64	142.71	-286.64	531.25	173.44	-269.84	651.46	127.82	-215.76	485.13	152.99	-185.81	490.06	289.56	-349.36	357.04	182.23	-316.94	250.83	185.96	-375.42	291.17	201.03	-295.97	322.39	168.69	-393.82	175.3	211.85	-368.28	167.16	290.06	-453.43	166.63	258.65	-448.71	141.61	292.93	-465.12	137.9	233.69	-326.78	61.895	178.33	-282.73	69.345	278.36	-231.18	59.217	221.96	-417.12	1412.7	339.52	-495.62	1161.4	344.13
180	0.74583	-234.04	1112.7	320.97	-327.49	1345.4	476.19	-347.36	1356.6	184.47	-267.3	1633	337.87	-273.51	937.92	433.84	-267.09	933.68	223.31	-481.29	986.46	377.45	-487.27	990.64	303.77	-353.56	823.26	519.05	-392.33	845.63	137.39	-369.38	987.9	490.68	-389.83	985.8	158.22	-514.08	943.87	335.77	-365.29	615.59	493.73	-319.82	534.27	451.69	-389.89	530.81	472.8	-298.98	619.29	471.95	-382.62	452.3	451.96	-399.83	446.03	308.99	-499.07	263.86	433.39	-441.05	172.09	412.04	-505.45	191.1	421.74	-430.5	239.18	430.42	-508.25	95.725	405.84	-498.99	107.84	322.7	-569.61	83.013	350.27	-556.38	50.718	322.3	-568.26	51.367	385.68	-408.33	39.667	431.18	-373.08	32.378	324.79	-325.2	57.652	381.52	-318.2	612.87	154.62	-217.04	569.42	143.41	-279.71	531.79	173.8	-263.17	652.02	128.11	-208.24	485.98	153.88	-179.19	491.19	290.36	-338.66	354.15	182.42	-303.21	248.94	186.13	-362.78	287.56	201.06	-284.3	321.06	169.01	-377.98	171.16	211.65	-352.29	163.59	289.91	-437.42	160.55	258.34	-431.93	135.63	292.58	-448.16	131.49	233.37	-307.46	59.84	178.04	-263.72	68.558	278.16	-211.87	60.071	221.77	-411.54	1412.6	339.55	-490.25	1161.4	344.45
181	0.75	-228.71	1112.8	321.05	-321.89	1345.5	476.18	-342.01	1356.5	184.49	-261.6	1632.8	337.67	-268.56	937.96	434.08	-261.76	933.91	223.64	-476.2	986.24	376.94	-482.01	990.55	303.25	-349.13	822.98	519.01	-386.22	845.98	136.85	-364.62	987.76	490.47	-384.29	985.92	158.03	-508.88	943.71	335.12	-362.9	615.6	493.73	-318.1	533.81	451.88	-388.25	531.02	472.82	-296.46	618.67	472.1	-381.64	452.4	452.04	-398.66	446.01	309.08	-498.63	264.2	433.36	-440.83	172.34	412.05	-505.14	191.47	421.7	-430.15	239.4	430.45	-508.07	95.996	405.84	-498.69	108.12	322.75	-569.46	83.406	350.23	-556.25	51.133	322.31	-568.16	51.752	385.65	-408.3	39.647	431.19	-373.02	32.404	324.82	-325.13	57.587	381.56	-311.6	613.15	154.73	-210.23	570.06	144.14	-272.93	532.22	174.17	-256.58	652.45	128.42	-200.87	486.72	154.79	-172.76	492.15	291.18	-327.93	351.2	182.61	-289.43	247.09	186.28	-350.08	283.93	201.08	-272.63	319.72	169.31	-362	167.08	211.41	-336.17	160.09	289.72	-421.2	154.54	258	-414.94	129.73	292.21	-430.99	125.17	233.01	-288.06	57.946	177.72	-244.66	67.928	277.93	-192.55	61.086	221.54	-405.97	1412.5	339.56	-484.86	1161.4	344.75
